<svg width="889" height="604" viewBox="0 0 889 604" fill="none" xmlns="http://www.w3.org/2000/svg">
<g filter="url(#filter0_d)">
<path d="M436.072 66.5897L599.929 261.41" stroke="white" stroke-width="100" stroke-linecap="round"/>
</g>
<g filter="url(#filter1_d)">
<path d="M136 92.2689L268.544 92.2689L413.245 276.339" stroke="white" stroke-width="100" stroke-linecap="round"/>
</g>
<g filter="url(#filter2_d)">
<path d="M604 50H754" stroke="#EE1261" stroke-width="100" stroke-linecap="round"/>
<path d="M754 50L679 130" stroke="#EE1261" stroke-width="100" stroke-linecap="round"/>
<path d="M604 50L679 130" stroke="#EE1261" stroke-width="100" stroke-linecap="round"/>
</g>
<g filter="url(#filter3_d)">
<path d="M170.25 407.25C174.25 407.25 177.583 408.75 180.25 411.75C183.083 414.583 184.5 418.25 184.5 422.75C184.5 424.25 184.167 426.167 183.5 428.5L145.25 531.5C144.25 534.5 142.417 536.917 139.75 538.75C137.25 540.417 134.5 541.25 131.5 541.25L129.5 541C123.833 540.667 119.583 537.5 116.75 531.5L95.5 470L75.25 531.5C72.4167 537.5 68.1667 540.667 62.5 541L60.5 541.25C57.5 541.25 54.6667 540.417 52 538.75C49.5 536.917 47.75 534.5 46.75 531.5L8.5 428.5C7.83333 426.667 7.5 424.75 7.5 422.75C7.5 418.583 8.83333 415 11.5 412C14.3333 408.833 18 407.25 22.5 407.25C25.8333 407.25 28.6667 408.083 31 409.75C33.5 411.25 35.25 413.583 36.25 416.75L63.25 490L83 436.5C85.6667 430.333 90.25 427.25 96.75 427.25C100.25 427.25 102.917 428 104.75 429.5C106.75 431 108.417 433.333 109.75 436.5L129 488.75L155.75 416.75C156.75 413.583 158.5 411.25 161 409.75C163.5 408.083 166.583 407.25 170.25 407.25ZM317.371 404.75C321.704 404.75 325.288 406.167 328.121 409C330.954 411.833 332.371 415.5 332.371 420V525.75C332.371 530.083 330.954 533.75 328.121 536.75C325.288 539.583 321.704 541 317.371 541C313.038 541 309.454 539.583 306.621 536.75C303.954 533.917 302.538 530.333 302.371 526C298.204 530.833 292.538 535 285.371 538.5C278.371 541.833 270.954 543.5 263.121 543.5C251.621 543.5 241.204 540.583 231.871 534.75C222.538 528.75 215.121 520.5 209.621 510C204.288 499.5 201.621 487.583 201.621 474.25C201.621 460.917 204.288 449 209.621 438.5C214.954 427.833 222.204 419.583 231.371 413.75C240.704 407.75 250.954 404.75 262.121 404.75C270.121 404.75 277.621 406.25 284.621 409.25C291.621 412.083 297.538 415.75 302.371 420.25V420C302.371 415.667 303.788 412.083 306.621 409.25C309.454 406.25 313.038 404.75 317.371 404.75ZM266.871 516C277.704 516 286.538 512.083 293.371 504.25C300.204 496.25 303.621 486.25 303.621 474.25C303.621 462.25 300.204 452.25 293.371 444.25C286.538 436.25 277.704 432.25 266.871 432.25C256.204 432.25 247.454 436.25 240.621 444.25C233.788 452.25 230.371 462.25 230.371 474.25C230.371 486.25 233.704 496.25 240.371 504.25C247.204 512.083 256.038 516 266.871 516ZM519.133 404.75C535.633 404.75 547.049 409.833 553.383 420C559.716 430 562.883 443.917 562.883 461.75V525.75C562.883 530.083 561.466 533.75 558.633 536.75C555.799 539.583 552.216 541 547.883 541C543.549 541 539.966 539.583 537.133 536.75C534.299 533.75 532.883 530.083 532.883 525.75V461.75C532.883 452.583 531.049 445.417 527.383 440.25C523.883 434.917 517.633 432.25 508.633 432.25C499.299 432.25 491.966 435.083 486.633 440.75C481.466 446.25 478.883 453.25 478.883 461.75V525.75C478.883 530.083 477.466 533.75 474.633 536.75C471.799 539.583 468.216 541 463.883 541C459.549 541 455.966 539.583 453.133 536.75C450.299 533.75 448.883 530.083 448.883 525.75V461.75C448.883 452.583 447.049 445.417 443.383 440.25C439.883 434.917 433.633 432.25 424.633 432.25C415.299 432.25 407.966 435.083 402.633 440.75C397.466 446.25 394.883 453.25 394.883 461.75V525.75C394.883 530.083 393.466 533.75 390.633 536.75C387.799 539.583 384.216 541 379.883 541C375.549 541 371.966 539.583 369.133 536.75C366.299 533.75 364.883 530.083 364.883 525.75V422.5C364.883 418.167 366.299 414.583 369.133 411.75C371.966 408.75 375.549 407.25 379.883 407.25C384.216 407.25 387.799 408.75 390.633 411.75C393.466 414.583 394.883 418.167 394.883 422.5V426.5C399.383 420.5 405.049 415.417 411.883 411.25C418.883 406.917 426.633 404.75 435.133 404.75C456.133 404.75 469.549 413.917 475.383 432.25C479.216 425.25 484.966 418.917 492.633 413.25C500.466 407.583 509.299 404.75 519.133 404.75ZM664.602 404.75C676.102 404.75 686.518 407.75 695.852 413.75C705.185 419.583 712.518 427.75 717.852 438.25C723.352 448.75 726.102 460.667 726.102 474C726.102 487.333 723.435 499.333 718.102 510C712.768 520.5 705.435 528.75 696.102 534.75C686.935 540.583 676.768 543.5 665.602 543.5C657.602 543.5 650.018 541.917 642.852 538.75C635.852 535.417 630.018 531.417 625.352 526.75V528.25C625.352 532.583 623.935 536.25 621.102 539.25C618.268 542.083 614.685 543.5 610.352 543.5C606.018 543.5 602.435 542.083 599.602 539.25C596.768 536.417 595.352 532.75 595.352 528.25V371.25C595.352 366.917 596.768 363.333 599.602 360.5C602.435 357.5 606.018 356 610.352 356C614.685 356 618.268 357.5 621.102 360.5C623.935 363.333 625.352 366.917 625.352 371.25V423.5C629.352 418.5 634.935 414.167 642.102 410.5C649.268 406.667 656.768 404.75 664.602 404.75ZM660.852 516C671.518 516 680.268 512 687.102 504C693.935 496 697.352 486 697.352 474C697.352 462 693.935 452.083 687.102 444.25C680.435 436.25 671.685 432.25 660.852 432.25C650.018 432.25 641.185 436.25 634.352 444.25C627.518 452.083 624.102 462 624.102 474C624.102 486 627.518 496 634.352 504C641.185 512 650.018 516 660.852 516ZM879.613 474.25C879.613 487.583 876.613 499.583 870.613 510.25C864.613 520.75 856.363 528.917 845.863 534.75C835.53 540.583 824.113 543.5 811.613 543.5C798.947 543.5 787.447 540.583 777.113 534.75C766.78 528.917 758.613 520.75 752.613 510.25C746.613 499.583 743.613 487.583 743.613 474.25C743.613 460.917 746.613 449 752.613 438.5C758.613 427.833 766.78 419.583 777.113 413.75C787.447 407.75 798.947 404.75 811.613 404.75C824.113 404.75 835.53 407.75 845.863 413.75C856.363 419.583 864.613 427.833 870.613 438.5C876.613 449 879.613 460.917 879.613 474.25ZM849.613 474.25C849.613 466.083 847.863 458.833 844.363 452.5C841.03 446 836.447 441 830.613 437.5C824.947 434 818.613 432.25 811.613 432.25C804.613 432.25 798.197 434 792.363 437.5C786.697 441 782.113 446 778.613 452.5C775.28 458.833 773.613 466.083 773.613 474.25C773.613 482.417 775.28 489.667 778.613 496C782.113 502.333 786.697 507.25 792.363 510.75C798.197 514.25 804.613 516 811.613 516C818.613 516 824.947 514.25 830.613 510.75C836.447 507.25 841.03 502.333 844.363 496C847.863 489.667 849.613 482.417 849.613 474.25Z" fill="white"/>
</g>
<defs>
<filter id="filter0_d" x="381.098" y="12.4745" width="273.804" height="311.051" filterUnits="userSpaceOnUse" color-interpolation-filters="sRGB">
<feFlood flood-opacity="0" result="BackgroundImageFix"/>
<feColorMatrix in="SourceAlpha" type="matrix" values="0 0 0 0 0 0 0 0 0 0 0 0 0 0 0 0 0 0 127 0" result="hardAlpha"/>
<feOffset dy="4"/>
<feGaussianBlur stdDeviation="2"/>
<feComposite in2="hardAlpha" operator="out"/>
<feColorMatrix type="matrix" values="0 0 0 0 0 0 0 0 0 0 0 0 0 0 0 0 0 0 0.25 0"/>
<feBlend mode="normal" in2="BackgroundImageFix" result="effect1_dropShadow"/>
<feBlend mode="normal" in="SourceGraphic" in2="effect1_dropShadow" result="shape"/>
</filter>
<filter id="filter1_d" x="79.2363" y="24.3607" width="390.776" height="327.889" filterUnits="userSpaceOnUse" color-interpolation-filters="sRGB">
<feFlood flood-opacity="0" result="BackgroundImageFix"/>
<feColorMatrix in="SourceAlpha" type="matrix" values="0 0 0 0 0 0 0 0 0 0 0 0 0 0 0 0 0 0 127 0" result="hardAlpha"/>
<feOffset dy="4"/>
<feGaussianBlur stdDeviation="2"/>
<feComposite in2="hardAlpha" operator="out"/>
<feColorMatrix type="matrix" values="0 0 0 0 0 0 0 0 0 0 0 0 0 0 0 0 0 0 0.25 0"/>
<feBlend mode="normal" in2="BackgroundImageFix" result="effect1_dropShadow"/>
<feBlend mode="normal" in="SourceGraphic" in2="effect1_dropShadow" result="shape"/>
</filter>
<filter id="filter2_d" x="550" y="-0.000167847" width="258" height="188" filterUnits="userSpaceOnUse" color-interpolation-filters="sRGB">
<feFlood flood-opacity="0" result="BackgroundImageFix"/>
<feColorMatrix in="SourceAlpha" type="matrix" values="0 0 0 0 0 0 0 0 0 0 0 0 0 0 0 0 0 0 127 0" result="hardAlpha"/>
<feOffset dy="4"/>
<feGaussianBlur stdDeviation="2"/>
<feComposite in2="hardAlpha" operator="out"/>
<feColorMatrix type="matrix" values="0 0 0 0 0 0 0 0 0 0 0 0 0 0 0 0 0 0 0.25 0"/>
<feBlend mode="normal" in2="BackgroundImageFix" result="effect1_dropShadow"/>
<feBlend mode="normal" in="SourceGraphic" in2="effect1_dropShadow" result="shape"/>
</filter>
<filter id="filter3_d" x="3.5" y="356" width="880.113" height="195.5" filterUnits="userSpaceOnUse" color-interpolation-filters="sRGB">
<feFlood flood-opacity="0" result="BackgroundImageFix"/>
<feColorMatrix in="SourceAlpha" type="matrix" values="0 0 0 0 0 0 0 0 0 0 0 0 0 0 0 0 0 0 127 0" result="hardAlpha"/>
<feOffset dy="4"/>
<feGaussianBlur stdDeviation="2"/>
<feComposite in2="hardAlpha" operator="out"/>
<feColorMatrix type="matrix" values="0 0 0 0 0 0 0 0 0 0 0 0 0 0 0 0 0 0 0.25 0"/>
<feBlend mode="normal" in2="BackgroundImageFix" result="effect1_dropShadow"/>
<feBlend mode="normal" in="SourceGraphic" in2="effect1_dropShadow" result="shape"/>
</filter>
</defs>
</svg>
